# xmcd
#
# Track frame offsets:
#	150
#	15353
#	27877
#	40217
#	53613
#	66237
#	79350
#	97422
#	109635
#	122553
#	134825
#	147314
#	158117
#	170932
#	185525
#	198979
#	209687
#
# Disc length: 2924 seconds
#
# Revision: 1
# Processed by: cddbd v1.5.2PL0 Copyright (c) Steve Scherf et al.
# Submitted via: audiograbber 1.83.01
#
DISCID=fe0b6a11
DTITLE=Gary Smith - Memories
DYEAR=1900
DGENRE=
TTITLE0=Memories     
TTITLE1=Redwings
TTITLE2=Crazy
TTITLE3=I'm Going Back To yarrawonga
TTITLE4=Old Gidgee Tree
TTITLE5=Hobnail Express
TTITLE6=We've Done Us Proud
TTITLE7=Meryl's Theme
TTITLE8=Grandfathers Clock
TTITLE9=Somewhere Between
TTITLE10=The One Ya Wrote
TTITLE11=Closest Thing To Freedom
TTITLE12=The Kingdom I Call Home
TTITLE13=My Son Calls Another Man Daddy
TTITLE14=Pick Me Up On Your Way Down
TTITLE15=Little Green Valley
TTITLE16=Buck's Polka
EXTD=
EXTT0=
EXTT1=
EXTT2=
EXTT3=
EXTT4=
EXTT5=
EXTT6=
EXTT7=
EXTT8=
EXTT9=
EXTT10=
EXTT11=
EXTT12=
EXTT13=
EXTT14=
EXTT15=
EXTT16=
PLAYORDER=
